<svg xmlns="http://www.w3.org/2000/svg" width="512" height="512" viewBox="0 0 512 512" fill="none">
  <rect width="512" height="512" rx="120" fill="#F2F2F2"/>
  <rect x="84" y="84" width="344" height="344" rx="92" fill="#111111"/>
  <path d="M366 150a148 148 0 0 0-225.16 181.82L122 390l61.85-16.18A148 148 0 1 0 366 150Zm-110 191.5a121.8 121.8 0 0 1-62.44-17.08l-4.53-2.62-38 9.94 10.15-36.98-2.9-4.76a122.06 122.06 0 1 1 97.72 51.5Zm67.13-91.81c-3.74-1.9-21.95-10.84-25.34-12.06-3.4-1.22-5.84-1.9-8.28 1.77-2.45 3.67-9.52 12.06-11.68 14.5-2.17 2.45-4.35 2.72-8.09.82-3.74-1.9-15.55-5.71-29.62-18.1-10.98-9.66-18.43-21.54-20.6-25.21-2.17-3.67-.2-5.61 1.63-7.42 1.63-1.62 3.67-4.22 5.44-6.25 1.77-2.04 2.45-3.4 3.67-5.71 1.22-2.31.61-4.35-.27-6.25-.95-1.9-8.29-20.05-11.34-27.46-2.99-7.2-6.04-6.22-8.29-6.32l-7.07-.14c-2.31 0-6.05.82-9.25 4.35-3.12 3.54-11.88 11.61-11.88 28.28s12.15 32.75 13.78 35.06c1.63 2.31 23.82 36.37 57.72 50.99 8.08 3.49 14.4 5.58 19.38 7.14 8.17 2.59 15.59 2.23 21.46 1.35 6.52-1.02 21.95-8.96 25.07-17.69 3.13-8.72 3.13-16.19 2.18-17.69-.88-1.56-3.33-2.45-7.07-4.35Z" fill="#25D366"/>
</svg>
